<svg xmlns="http://www.w3.org/2000/svg" xmlns:xlink="http://www.w3.org/1999/xlink" version="1.1" x="0px" y="0px" viewBox="0 0 144.083 180" enable-background="new 0 0 144.083 144" xml:space="preserve"><path d="M113.73,122.322L97.728,99.713c-0.563-0.795-1.476-1.267-2.449-1.267H83.741l9.099-30.819v-0.434  c0-7.744-4.263-14.5-10.558-18.08c4.522-3.215,7.487-8.484,7.487-14.443c0-9.774-7.952-17.727-17.727-17.727  c-9.774,0-17.727,7.952-17.727,17.727c0,5.958,2.965,11.228,7.487,14.443c-6.294,3.58-10.557,10.336-10.557,18.08v0.442  l9.278,30.811H48.804c-0.974,0-1.887,0.472-2.449,1.267l-16.002,22.609c-0.647,0.916-0.73,2.116-0.215,3.112  c0.515,0.996,1.543,1.621,2.664,1.621h78.479c1.121,0,2.149-0.625,2.664-1.621C114.46,124.438,114.377,123.238,113.73,122.322z   M60.315,34.671c0-6.466,5.261-11.727,11.727-11.727c6.466,0,11.727,5.261,11.727,11.727c0,6.465-5.261,11.726-11.727,11.726  C65.576,46.396,60.315,41.136,60.315,34.671z M72.042,52.396c8.021,0,14.572,6.414,14.792,14.383l-12.785,43.306h-3.755  L57.251,66.771C57.476,58.807,64.024,52.396,72.042,52.396z M38.601,121.056l11.755-16.609H62.33l3.504,11.639h12.699l3.437-11.639  h11.758l11.755,16.609H38.601z"/></svg>
